<?xml version="1.0" encoding="UTF-8" standalone="no"?>
<!-- Created with Inkscape (http://www.inkscape.org/) -->

<svg
   xmlns:dc="http://purl.org/dc/elements/1.1/"
   xmlns:cc="http://creativecommons.org/ns#"
   xmlns:rdf="http://www.w3.org/1999/02/22-rdf-syntax-ns#"
   xmlns:svg="http://www.w3.org/2000/svg"
   xmlns="http://www.w3.org/2000/svg"
   xmlns:sodipodi="http://sodipodi.sourceforge.net/DTD/sodipodi-0.dtd"
   xmlns:inkscape="http://www.inkscape.org/namespaces/inkscape"
   width="71mm"
   height="74mm"
   viewBox="0 0 71 74"
   version="1.1"
   id="svg8"
   inkscape:version="0.92.3 (d244b95, 2018-08-02)"
   sodipodi:docname="alex-lugo.svg">
  <defs
     id="defs2" />
  <sodipodi:namedview
     id="base"
     pagecolor="#ffffff"
     bordercolor="#666666"
     borderopacity="1.0"
     inkscape:pageopacity="0.0"
     inkscape:pageshadow="2"
     inkscape:zoom="3"
     inkscape:cx="149.9456"
     inkscape:cy="136.34825"
     inkscape:document-units="mm"
     inkscape:current-layer="layer1"
     showgrid="false"
     inkscape:window-width="1859"
     inkscape:window-height="1056"
     inkscape:window-x="61"
     inkscape:window-y="24"
     inkscape:window-maximized="1" />
  <metadata
     id="metadata5">
    <rdf:RDF>
      <cc:Work
         rdf:about="">
        <dc:format>image/svg+xml</dc:format>
        <dc:type
           rdf:resource="http://purl.org/dc/dcmitype/StillImage" />
        <dc:title></dc:title>
      </cc:Work>
    </rdf:RDF>
  </metadata>
  <g
     inkscape:label="Layer 1"
     inkscape:groupmode="layer"
     id="layer1"
     transform="translate(0,-223)">
    <ellipse
       style="fill:#252525;fill-opacity:1;fill-rule:nonzero;stroke:none;stroke-width:2.747859;stroke-miterlimit:4;stroke-dasharray:none;stroke-opacity:1"
       id="ellipse920"
       cx="6.0583496"
       cy="263.45731"
       rx="2.6187501"
       ry="2.8833334" />
    <ellipse
       style="fill:#252525;fill-opacity:1;fill-rule:nonzero;stroke:none;stroke-width:5.33031845;stroke-miterlimit:4;stroke-dasharray:none;stroke-opacity:1"
       id="ellipse918"
       cx="6.4552231"
       cy="257.37189"
       rx="5.3968749"
       ry="5.2645836" />
    <circle
       r="5"
       cy="249.96355"
       cx="5"
       id="circle837"
       style="fill:#252525;fill-opacity:1;fill-rule:nonzero;stroke:none;stroke-width:5;stroke-miterlimit:4;stroke-dasharray:none;stroke-opacity:1" />
    <circle
       style="fill:#252525;fill-opacity:1;fill-rule:nonzero;stroke:none;stroke-width:5;stroke-miterlimit:4;stroke-dasharray:none;stroke-opacity:1"
       id="circle833"
       cx="64.531265"
       cy="260.01773"
       r="5" />
    <circle
       r="5"
       cy="257.1073"
       cx="7.9104156"
       id="circle835"
       style="fill:#252525;fill-opacity:1;fill-rule:nonzero;stroke:none;stroke-width:5;stroke-miterlimit:4;stroke-dasharray:none;stroke-opacity:1" />
    <g
       id="g970">
      <path
         inkscape:connector-curvature="0"
         id="path879"
         d="m 17.964579,251.15417 c -0.529167,0.0882 -1.053238,0.21601 -1.5875,0.26458 -0.317035,0.0288 -3.52461,0.0256 -3.704167,0 -0.123473,-0.0176 -0.146259,-0.22514 -0.264583,-0.26458 -0.426628,-0.14221 -0.920689,-0.0635 -1.322917,-0.26459 -0.17639,-0.0882 -0.125135,-0.38972 -0.264583,-0.52916 -0.311814,-0.31182 -0.713992,-0.51828 -1.0583344,-0.79375 -0.206446,-0.16516 -0.590978,-0.69237 -0.79375,-0.79375 -0.07888,-0.0394 -0.202221,0.0624 -0.264583,0 -0.06236,-0.0624 0.06236,-0.20222 0,-0.26459 -0.224853,-0.22485 -0.568896,-0.30431 -0.79375,-0.52916 -0.0085,-0.008 0,-0.72959 0,-0.79375 0,-0.26459 0,-0.52917 0,-0.79375 0,-0.17639 -0.07888,-0.3714 0,-0.52917 0.03944,-0.0789 0.202221,0.0624 0.264583,0 0.06236,-0.0624 -0.02138,-0.17902 0,-0.26458 0.06764,-0.27057 0.109879,-0.5617 0.264584,-0.79375 0.04892,-0.0734 0.215662,0.0734 0.264583,0 0.154705,-0.23206 0.139859,-0.5443 0.264583,-0.79375 0.05578,-0.11156 0.186669,-0.16719 0.264584,-0.26459 0.275473,-0.34434 0.549143,-0.69142 0.7937504,-1.05833 0.109392,-0.16409 0.125134,-0.38972 0.264583,-0.52917 0.06236,-0.0624 0.202221,0.0624 0.264583,0 0.06236,-0.0624 -0.06236,-0.20222 0,-0.26458 0.06236,-0.0624 0.225142,0.0789 0.264584,0 0,-1.49931 -0.17639,-0.0882 0.264583,-0.52917 0.06236,-0.0624 -0.06236,-0.20222 0,-0.26458 0.06236,-0.0624 0.185701,0.0394 0.264583,0 0.111559,-0.0558 0.17639,-0.17639 0.264584,-0.26458 0.264583,-0.26459 0.569243,-0.49441 0.79375,-0.79375 0.05292,-0.0706 -0.03944,-0.1857 0,-0.26459 0.05578,-0.11155 0.17639,-0.17639 0.264583,-0.26458 0.352777,-0.35278 0.705557,-0.70556 1.058333,-1.05833 0.08819,-0.0882 0.153025,-0.20881 0.264584,-0.26459 0.07888,-0.0394 0.1857,0.0394 0.264583,0 0.214537,-0.10727 0.598101,-0.74483 0.79375,-0.79375 0.256683,-0.0642 0.550558,0.10423 0.79375,0 0.405318,-0.17371 0.680204,-0.56687 1.058333,-0.79375 0.07563,-0.0454 0.180915,0.0279 0.264584,0 0.187089,-0.0624 0.335788,-0.22591 0.529166,-0.26458 0.259445,-0.0519 0.529167,0 0.79375,0 0.529167,0 1.058334,0 1.5875,0 0.264584,0 0.537067,0.0642 0.79375,0 0.121002,-0.0302 0.153025,-0.20881 0.264584,-0.26458 0.104309,-0.0522 1.061585,0 1.322916,0 0.881944,0 1.76389,0 2.645834,0 0.529166,0 1.058333,0 1.5875,0 0.264583,0 0.537067,-0.0642 0.79375,0 0.121001,0.0302 0.143581,0.23433 0.264583,0.26458 0.256683,0.0642 0.557099,-0.11833 0.79375,0 0.17639,0.0882 0.100497,0.41978 0.264583,0.52917 0.146765,0.0978 0.356203,-0.0346 0.529167,0 0.273479,0.0547 0.561694,0.10988 0.79375,0.26458 0.059,0.0393 -0.04691,0.38845 0,0.52917 0.06236,0.18708 0.149958,0.36869 0.264583,0.52916 0.328237,0.45954 0.805783,0.81782 1.058334,1.32292 0.118324,0.23665 -0.08367,0.54274 0,0.79375 -0.231929,0.69356 0.629978,0.6489 0.79375,1.05833 0.135051,0.33763 0.101959,0.73309 0.264583,1.05834 0.03944,0.0789 0.202221,-0.0624 0.264583,0 0.06236,0.0624 -0.02138,0.17902 0,0.26458 0.06764,0.27057 0.17639,0.52917 0.264584,0.79375 0.08819,0.26458 0.209888,0.52027 0.264583,0.79375 0.05251,0.26256 0,1.04493 0,1.32292 0,0.79375 0,1.5875 0,2.38125 0,0.79375 0,1.5875 0,2.38125 0,0.26458 0.08367,0.54274 0,0.79375 -0.02789,0.0837 -0.202221,-0.0624 -0.264583,0 -0.06236,0.0624 0.06236,0.20222 0,0.26458 -0.06236,0.0624 -0.202222,-0.0624 -0.264584,0 -0.322257,0.32226 -0.123936,0.59114 -0.529166,0.79375 -0.104905,0.0524 -0.739659,-0.0541 -0.79375,0 -0.06236,0.0624 0.06236,0.20222 0,0.26458 -0.06236,0.0624 -0.178102,-0.0173 -0.264584,0 -0.356573,0.0713 -0.767426,0.0464 -1.058333,0.26459 -0.14111,0.10583 0.146764,0.43132 0,0.52916 -0.220147,0.14677 -0.529167,0 -0.79375,0 -0.08819,0 -0.202221,-0.0624 -0.264583,0 -0.06236,0.0624 0.06236,0.20222 0,0.26459 -0.06236,0.0624 -0.17639,0 -0.264584,0 -0.264583,0 -0.529166,0 -0.79375,0 -0.529166,0 -1.058333,0 -1.5875,0 -0.970139,0 -1.940277,0 -2.910416,0 -0.06287,0 -0.999033,0.0297 -1.058334,0 -0.111559,-0.0558 -0.153024,-0.20881 -0.264583,-0.26459 -0.07888,-0.0394 -0.1857,0.0394 -0.264583,0 -0.111559,-0.0558 -0.146259,-0.22514 -0.264584,-0.26458 -0.167338,-0.0558 -0.371401,0.0789 -0.529166,0 -0.07888,-0.0394 0.07056,-0.21167 0,-0.26458 -0.315534,-0.23665 -0.692127,-0.38269 -1.058334,-0.52917 -0.08189,-0.0328 -0.202221,0.0624 -0.264583,0 -0.06236,-0.0624 0.06236,-0.20222 0,-0.26458 -0.124725,-0.12473 -0.404442,0.12472 -0.529167,0 -0.06236,-0.0624 0.06236,-0.20222 0,-0.26459 -0.06236,-0.0624 -0.182697,0.0327 -0.264583,0 -0.366207,-0.14648 -0.705556,-0.35278 -1.058333,-0.52916 z"
         style="fill:#d1d158;fill-opacity:1;stroke:none;stroke-width:0.26458332px;stroke-linecap:butt;stroke-linejoin:miter;stroke-opacity:1" />
      <path
         style="fill:#d1d158;fill-opacity:1;fill-rule:nonzero;stroke:none;stroke-width:7.24568844;stroke-miterlimit:4;stroke-dasharray:none;stroke-opacity:1"
         d="M 6.2354126,247 H 66.235413 v 21 H 6.2354126 Z"
         id="rect815"
         inkscape:connector-curvature="0" />
      <path
         style="fill:#d1d158;fill-opacity:1;fill-rule:nonzero;stroke:none;stroke-width:5;stroke-miterlimit:4;stroke-dasharray:none;stroke-opacity:1"
         d="m 66.235413,267 a 30,30 0 0 1 -15.000001,25.98076 30,30 0 0 1 -30,0 A 30,30 0 0 1 6.2354126,267 H 36.235413 Z"
         id="path817"
         inkscape:connector-curvature="0" />
    </g>
    <g
       id="g933"
       transform="translate(61,74.259722)">
      <path
         style="fill:#391c1c;fill-opacity:1;fill-rule:nonzero;stroke:none;stroke-width:5;stroke-miterlimit:4;stroke-dasharray:none;stroke-opacity:1"
         id="path924"
         sodipodi:type="arc"
         sodipodi:cx="-26"
         sodipodi:cy="201"
         sodipodi:rx="16"
         sodipodi:ry="14"
         sodipodi:start="0"
         sodipodi:end="3.1415927"
         d="m -10,201 a 16,14 0 0 1 -8,12.12436 16,14 0 0 1 -16,0 A 16,14 0 0 1 -42,201 l 16,0 z" />
      <path
         inkscape:connector-curvature="0"
         id="path922"
         d="M -25.955689,207.87892 A 16,14 0 0 0 -36.6,211.44925 a 16.139583,14.287499 0 0 0 2.574004,1.63659 16.139583,14.287499 0 0 0 16.139582,0 16.139583,14.287499 0 0 0 2.563668,-1.649 16,14 0 0 0 -10.632943,-3.55792 z"
         style="fill:#e63a3a;fill-opacity:1;fill-rule:nonzero;stroke:none;stroke-width:5;stroke-miterlimit:4;stroke-dasharray:none;stroke-opacity:1" />
    </g>
    <g
       id="g937">
      <circle
         r="6"
         cy="263"
         cx="20.235413"
         id="path819"
         style="fill:#533d23;fill-opacity:1;fill-rule:nonzero;stroke:none;stroke-width:5;stroke-miterlimit:4;stroke-dasharray:none;stroke-opacity:1" />
      <circle
         style="fill:#533d23;fill-opacity:1;fill-rule:nonzero;stroke:none;stroke-width:5;stroke-miterlimit:4;stroke-dasharray:none;stroke-opacity:1"
         id="circle821"
         cx="52.235413"
         cy="263"
         r="6" />
    </g>
    <circle
       style="fill:#252525;fill-opacity:1;fill-rule:nonzero;stroke:none;stroke-width:5;stroke-miterlimit:4;stroke-dasharray:none;stroke-opacity:1"
       id="path823"
       cx="44.158333"
       cy="245.9948"
       r="5" />
    <circle
       r="5"
       cy="249.1698"
       cx="50.772926"
       id="circle825"
       style="fill:#252525;fill-opacity:1;fill-rule:nonzero;stroke:none;stroke-width:5;stroke-miterlimit:4;stroke-dasharray:none;stroke-opacity:1" />
    <ellipse
       style="fill:#252525;fill-opacity:1;fill-rule:nonzero;stroke:none;stroke-width:3.96731448;stroke-miterlimit:4;stroke-dasharray:none;stroke-opacity:1"
       id="circle827"
       cx="53.947922"
       cy="254.46147"
       rx="3.1479166"
       ry="5" />
    <circle
       style="fill:#252525;fill-opacity:1;fill-rule:nonzero;stroke:none;stroke-width:5;stroke-miterlimit:4;stroke-dasharray:none;stroke-opacity:1"
       id="circle829"
       cx="58.975006"
       cy="248.37605"
       r="5" />
    <circle
       r="5"
       cy="252.3448"
       cx="65.589592"
       id="circle831"
       style="fill:#252525;fill-opacity:1;fill-rule:nonzero;stroke:none;stroke-width:5;stroke-miterlimit:4;stroke-dasharray:none;stroke-opacity:1" />
    <circle
       r="5"
       cy="243.08438"
       cx="7.6458359"
       id="circle839"
       style="fill:#252525;fill-opacity:1;fill-rule:nonzero;stroke:none;stroke-width:5;stroke-miterlimit:4;stroke-dasharray:none;stroke-opacity:1" />
    <ellipse
       cy="187.07005"
       cx="161.23616"
       id="circle841"
       style="fill:#252525;fill-opacity:1;fill-rule:nonzero;stroke:none;stroke-width:4.20998335;stroke-miterlimit:4;stroke-dasharray:none;stroke-opacity:1"
       rx="3.5447917"
       ry="5"
       transform="rotate(38.584802)"
       inkscape:transform-center-x="1.3229167"
       inkscape:transform-center-y="-0.26458333" />
    <circle
       r="5"
       cy="242.02605"
       cx="15.054169"
       id="circle843"
       style="fill:#252525;fill-opacity:1;fill-rule:nonzero;stroke:none;stroke-width:5;stroke-miterlimit:4;stroke-dasharray:none;stroke-opacity:1" />
    <circle
       style="fill:#252525;fill-opacity:1;fill-rule:nonzero;stroke:none;stroke-width:5;stroke-miterlimit:4;stroke-dasharray:none;stroke-opacity:1"
       id="circle845"
       cx="20.345833"
       cy="238.0573"
       r="5" />
    <circle
       r="5"
       cy="239.3802"
       cx="26.431252"
       id="circle847"
       style="fill:#252525;fill-opacity:1;fill-rule:nonzero;stroke:none;stroke-width:5;stroke-miterlimit:4;stroke-dasharray:none;stroke-opacity:1" />
    <circle
       style="fill:#252525;fill-opacity:1;fill-rule:nonzero;stroke:none;stroke-width:5;stroke-miterlimit:4;stroke-dasharray:none;stroke-opacity:1"
       id="circle849"
       cx="31.987503"
       cy="245.73021"
       r="5" />
    <ellipse
       cy="250.75729"
       cx="37.808334"
       id="circle851"
       style="fill:#252525;fill-opacity:1;fill-rule:nonzero;stroke:none;stroke-width:3.79692864;stroke-miterlimit:4;stroke-dasharray:none;stroke-opacity:1"
       rx="2.8833334"
       ry="5" />
    <circle
       style="fill:#252525;fill-opacity:1;fill-rule:nonzero;stroke:none;stroke-width:5;stroke-miterlimit:4;stroke-dasharray:none;stroke-opacity:1"
       id="circle853"
       cx="62.943756"
       cy="244.93646"
       r="5" />
    <circle
       r="5"
       cy="238.32188"
       cx="59.768753"
       id="circle855"
       style="fill:#252525;fill-opacity:1;fill-rule:nonzero;stroke:none;stroke-width:5;stroke-miterlimit:4;stroke-dasharray:none;stroke-opacity:1" />
    <circle
       style="fill:#252525;fill-opacity:1;fill-rule:nonzero;stroke:none;stroke-width:5;stroke-miterlimit:4;stroke-dasharray:none;stroke-opacity:1"
       id="circle857"
       cx="11.879173"
       cy="236.4698"
       r="5" />
    <circle
       r="5"
       cy="230.91354"
       cx="17.700005"
       id="circle859"
       style="fill:#252525;fill-opacity:1;fill-rule:nonzero;stroke:none;stroke-width:5;stroke-miterlimit:4;stroke-dasharray:none;stroke-opacity:1" />
    <ellipse
       style="fill:#252525;fill-opacity:1;fill-rule:nonzero;stroke:none;stroke-width:5.73912001;stroke-miterlimit:4;stroke-dasharray:none;stroke-opacity:1"
       id="circle861"
       cx="24.57917"
       cy="230.64897"
       rx="5"
       ry="6.5875001" />
    <circle
       r="5"
       cy="228.26772"
       cx="30.929169"
       id="circle863"
       style="fill:#252525;fill-opacity:1;fill-rule:nonzero;stroke:none;stroke-width:5;stroke-miterlimit:4;stroke-dasharray:none;stroke-opacity:1" />
    <circle
       style="fill:#252525;fill-opacity:1;fill-rule:nonzero;stroke:none;stroke-width:5;stroke-miterlimit:4;stroke-dasharray:none;stroke-opacity:1"
       id="circle865"
       cx="47.068756"
       cy="228.5323"
       r="5" />
    <circle
       r="5"
       cy="231.97188"
       cx="54.477081"
       id="circle867"
       style="fill:#252525;fill-opacity:1;fill-rule:nonzero;stroke:none;stroke-width:5;stroke-miterlimit:4;stroke-dasharray:none;stroke-opacity:1" />
    <ellipse
       style="fill:#252525;fill-opacity:1;fill-rule:nonzero;stroke:none;stroke-width:3.59575963;stroke-miterlimit:4;stroke-dasharray:none;stroke-opacity:1"
       id="circle869"
       cx="56.990616"
       cy="235.41147"
       rx="3.2802083"
       ry="3.9416666" />
    <ellipse
       cy="229.32605"
       cx="38.734375"
       id="circle871"
       style="fill:#252525;fill-opacity:1;fill-rule:nonzero;stroke:none;stroke-width:6.89256811;stroke-miterlimit:4;stroke-dasharray:none;stroke-opacity:1"
       rx="7.5135417"
       ry="6.3229165" />
    <ellipse
       ry="6.3229165"
       rx="7.5135417"
       style="fill:#252525;fill-opacity:1;fill-rule:nonzero;stroke:none;stroke-width:6.89256811;stroke-miterlimit:4;stroke-dasharray:none;stroke-opacity:1"
       id="ellipse873"
       cx="33.442711"
       cy="234.88229" />
    <ellipse
       cy="239.90938"
       cx="48.788551"
       id="ellipse875"
       style="fill:#252525;fill-opacity:1;fill-rule:nonzero;stroke:none;stroke-width:10.32205677;stroke-miterlimit:4;stroke-dasharray:none;stroke-opacity:1"
       rx="11.217709"
       ry="9.4979162" />
    <circle
       r="5"
       cy="243.34895"
       cx="37.543755"
       id="circle877"
       style="fill:#252525;fill-opacity:1;fill-rule:nonzero;stroke:none;stroke-width:5;stroke-miterlimit:4;stroke-dasharray:none;stroke-opacity:1" />
    <ellipse
       style="fill:#252525;fill-opacity:1;fill-rule:nonzero;stroke:none;stroke-width:3.67470288;stroke-miterlimit:4;stroke-dasharray:none;stroke-opacity:1"
       id="circle912"
       cx="6.7197876"
       cy="253.00626"
       rx="3.5447917"
       ry="3.809375" />
    <ellipse
       style="fill:#252525;fill-opacity:1;fill-rule:nonzero;stroke:none;stroke-width:2.747859;stroke-miterlimit:4;stroke-dasharray:none;stroke-opacity:1"
       id="circle914"
       cx="66.118759"
       cy="257.63647"
       rx="2.6187501"
       ry="2.8833334" />
    <ellipse
       ry="2.8833334"
       rx="2.6187501"
       cy="256.84271"
       cx="6.3229294"
       id="ellipse916"
       style="fill:#252525;fill-opacity:1;fill-rule:nonzero;stroke:none;stroke-width:2.747859;stroke-miterlimit:4;stroke-dasharray:none;stroke-opacity:1" />
    <path
       style="fill:#252525;fill-opacity:1;stroke:none;stroke-width:0.99999994px;stroke-linecap:butt;stroke-linejoin:miter;stroke-opacity:1"
       d="m 23.660156,170.24414 c 1.355291,39.07374 22.745421,74.69271 56.59961,94.25 35.081924,20.25477 78.304794,20.25477 113.386714,0 33.74531,-19.5457 55.07828,-55.0613 56.48243,-94.0332 -6.57096,29.07487 -23.14193,57.14974 -47.46289,87.22461 C 159.11068,272.57422 114.05534,273.37956 70.5,257.60156 45.053385,230.23242 30.440104,199.61328 23.660156,170.24414 Z"
       transform="matrix(0.26458333,0,0,0.26458333,0,223)"
       id="path944"
       inkscape:connector-curvature="0"
       sodipodi:nodetypes="ccccccc" />
  </g>
</svg>
