<?xml version="1.0" encoding="UTF-8" standalone="no"?>
<!-- Created with Inkscape (http://www.inkscape.org/) -->

<svg
   xmlns:dc="http://purl.org/dc/elements/1.1/"
   xmlns:cc="http://creativecommons.org/ns#"
   xmlns:rdf="http://www.w3.org/1999/02/22-rdf-syntax-ns#"
   xmlns:svg="http://www.w3.org/2000/svg"
   xmlns="http://www.w3.org/2000/svg"
   xmlns:sodipodi="http://sodipodi.sourceforge.net/DTD/sodipodi-0.dtd"
   xmlns:inkscape="http://www.inkscape.org/namespaces/inkscape"
   width="178mm"
   height="180mm"
   viewBox="0 0 178 180"
   version="1.1"
   id="svg8"
   inkscape:version="0.92.4 (ca053d0, 2019-01-16)"
   sodipodi:docname="bobby-ekwunazu.svg">
  <defs
     id="defs2" />
  <sodipodi:namedview
     id="base"
     pagecolor="#ffffff"
     bordercolor="#666666"
     borderopacity="1.0"
     inkscape:pageopacity="0.0"
     inkscape:pageshadow="2"
     inkscape:zoom="0.5"
     inkscape:cx="-585.78018"
     inkscape:cy="658.22073"
     inkscape:document-units="mm"
     inkscape:current-layer="layer1"
     showgrid="false"
     inkscape:window-width="1859"
     inkscape:window-height="1056"
     inkscape:window-x="61"
     inkscape:window-y="24"
     inkscape:window-maximized="1" />
  <metadata
     id="metadata5">
    <rdf:RDF>
      <cc:Work
         rdf:about="">
        <dc:format>image/svg+xml</dc:format>
        <dc:type
           rdf:resource="http://purl.org/dc/dcmitype/StillImage" />
        <dc:title></dc:title>
      </cc:Work>
    </rdf:RDF>
  </metadata>
  <g
     inkscape:label="Layer 1"
     inkscape:groupmode="layer"
     id="layer1"
     transform="translate(0,-117)">
    <rect
       style="fill:#a36b18;fill-opacity:1;fill-rule:nonzero;stroke:none;stroke-width:2.64885783;stroke-linecap:round;stroke-linejoin:miter;stroke-miterlimit:4;stroke-dasharray:none;stroke-opacity:1"
       id="rect945"
       width="141.364"
       height="62.706249"
       x="13.670145"
       y="169.83577" />
    <ellipse
       style="fill:#a36b18;fill-opacity:1;fill-rule:nonzero;stroke:none;stroke-width:0.84543341;stroke-linecap:round;stroke-linejoin:miter;stroke-miterlimit:4;stroke-dasharray:none;stroke-opacity:1"
       id="path815"
       cx="85.08242"
       cy="226.31801"
       rx="70.681549"
       ry="70.681999" />
    <ellipse
       style="fill:#a36b18;fill-opacity:1;fill-rule:nonzero;stroke:none;stroke-width:3;stroke-linecap:round;stroke-linejoin:miter;stroke-miterlimit:4;stroke-dasharray:none;stroke-opacity:1"
       id="path849"
       cx="12.851191"
       cy="220.96967"
       rx="12.851191"
       ry="13.229166" />
    <ellipse
       style="fill:#a36b18;fill-opacity:1;fill-rule:nonzero;stroke:none;stroke-width:3;stroke-linecap:round;stroke-linejoin:miter;stroke-miterlimit:4;stroke-dasharray:none;stroke-opacity:1"
       id="path849-7"
       cx="159.43034"
       cy="225.73216"
       rx="12.851191"
       ry="13.229167" />
    <rect
       style="fill:#000000;fill-opacity:1;fill-rule:nonzero;stroke:none;stroke-width:1.41001594;stroke-linecap:round;stroke-linejoin:miter;stroke-miterlimit:4;stroke-dasharray:none;stroke-opacity:1"
       id="rect866"
       width="10.469939"
       height="3.3639879"
       x="81.680656"
       y="214.43065" />
    <path
       style="fill:none;stroke:#1d0101;stroke-width:5;stroke-linecap:butt;stroke-linejoin:miter;stroke-miterlimit:4;stroke-dasharray:none;stroke-opacity:1"
       d="m 51.593749,255.78125 c 21.93346,21.77771 45.21118,22.84789 64.822911,0.26459"
       id="path868"
       inkscape:connector-curvature="0"
       sodipodi:nodetypes="cc" />
    <rect
       style="fill:#000000;fill-opacity:1;fill-rule:nonzero;stroke:#1d0101;stroke-width:5;stroke-linecap:round;stroke-linejoin:miter;stroke-miterlimit:4;stroke-dasharray:none;stroke-opacity:1"
       id="rect870"
       width="7.6729164"
       height="6.614583"
       x="55.82708"
       y="211.06668"
       rx="2"
       ry="2" />
    <rect
       style="fill:#000000;fill-opacity:1;fill-rule:nonzero;stroke:#1d0101;stroke-width:5;stroke-linecap:round;stroke-linejoin:miter;stroke-miterlimit:4;stroke-dasharray:none;stroke-opacity:1"
       id="rect870-5"
       width="7.6729169"
       height="6.6145835"
       x="111.78645"
       y="210.93437"
       rx="2"
       ry="2" />
    <g
       id="g943"
       transform="translate(222.51458,89.35313)">
      <g
         transform="matrix(1.2346154,0,0,1.50334,35.801177,-19.72049)"
         id="g912">
        <path
           style="fill:#000000;fill-opacity:1;stroke:none;stroke-width:0.26458332px;stroke-linecap:butt;stroke-linejoin:miter;stroke-opacity:1"
           d="m -202.93541,83.745834 c 7.14375,-38.188194 34.39583,-53.093055 58.7375,-44.714583 22.57778,-21.254861 62.882635,6.438194 68.527078,37.835416 -45.067358,-15.434028 -82.726388,-12.611805 -127.264578,6.879167 z"
           id="path887"
           inkscape:connector-curvature="0"
           sodipodi:nodetypes="cccc" />
        <path
           style="fill:#000000;fill-opacity:1;stroke:none;stroke-width:0.26458332px;stroke-linecap:butt;stroke-linejoin:miter;stroke-opacity:1"
           d="m -139.96458,63.637501 c 0.92604,11.1125 4.7625,32.940624 6.87917,24.606249 0,0 0.79375,-23.01875 0.79375,-21.960416 0,1.058333 3.43958,18.520833 3.43958,18.520833 2.86632,5.115278 1.76389,-10.539236 2.38125,-18.388541 2.55764,13.229166 2.68374,23.572601 7.35805,23.440311 2.86632,-1.367014 -0.0379,-10.828506 -0.74347,-23.969478 2.33715,8.422569 3.35139,24.782639 7.01146,25.267708 2.68993,-0.220486 1.94027,-15.786805 2.91041,-23.680208 1.10243,7.893402 -0.0441,21.475347 3.3073,23.680208 2.77812,-0.79375 2.91042,-15.610416 3.175,-23.018749 1.23472,10.054166 0.0882,28.971874 3.704165,30.162499 2.645833,-0.749653 2.248959,-17.638889 2.513542,-28.575 1.367014,8.510764 3.792361,21.12257 7.276041,21.166667 2.998611,-1.675695 0.970138,-13.140972 -0.529167,-20.902084 2.645833,10.583334 9.260417,29.501042 15.08125,28.575 -2.822222,-7.893403 -3.130903,-18.961805 -7.672917,-28.839583 6.702778,19.535069 14.067014,22.004514 17.727083,19.314583 -0.352778,-6.835069 -8.113889,-25.444097 -21.695833,-35.983333 3.615972,1.234722 6.305903,2.204861 8.466667,0.529167 0.485068,-4.233333 -17.550697,-12.567708 -28.310421,-17.4625 z"
           id="path908"
           inkscape:connector-curvature="0"
           sodipodi:nodetypes="ccsccccccccccccccccccc" />
      </g>
      <path
         sodipodi:nodetypes="cccccccccccccccccccccccc"
         inkscape:connector-curvature="0"
         id="path914"
         d="m -135.81944,79.688887 c -2.23426,7.408334 -2.17546,21.695833 -6.70278,22.225003 -3.41019,-1.999074 -2.05787,-13.523149 -0.70556,-20.81389 -2.70463,9.877777 -3.68946,28.75139 -8.11388,29.63333 -3.41019,-1.27882 -1.13183,-18.432637 0.88194,-31.22083 -2.88102,9.99537 -5.76203,29.78032 -8.64305,29.98611 -2.91042,-1.20532 -1.05833,-16.03669 0,-25.047223 -1.6463,6.996761 -1.44051,20.740393 -4.93889,20.990283 -3.2418,-0.2854 -2.62774,-10.205931 -1.5875,-16.227783 -0.85255,4.086343 -1.83739,10.02477 -4.93889,11.068403 -1.98437,-1.763888 -1.19062,-7.893402 0,-12.83229 -2.58704,9.34861 -3.71886,27.16389 -7.76111,28.04583 -4.15984,-1.16123 -1.70509,-16.609952 -0.17639,-26.105553 -3.52778,10.068866 -10.09827,26.487733 -15.34584,25.047223 -2.11667,-3.96875 2.11667,-14.2875 4.7625,-22.225 -5.23287,11.23009 -14.43449,29.86852 -18.87361,28.92778 -3.02801,-2.32245 -3.54247,-9.80428 4.40973,-23.636113 -4.7625,8.349073 -8.20208,24.106483 -14.2875,25.047223 -1.52871,-3.57188 3.1603,-24.738544 8.11388,-38.100003 -2.39595,2.23426 -6.3794,4.997687 -9.17222,3.52778 1.6757,-3.410185 6.65869,-19.255787 18.52084,-24.518056 -3.61597,1.220023 -7.09965,2.04317 -8.46667,-0.705557 0.77906,-2.704629 9.23102,-3.292591 13.05278,-6.526387 z"
         style="fill:#000000;fill-opacity:1;stroke:none;stroke-width:0.26458332px;stroke-linecap:butt;stroke-linejoin:miter;stroke-opacity:1" />
    </g>
    <path
       style="fill:none;stroke:#000000;stroke-width:3;stroke-linecap:butt;stroke-linejoin:miter;stroke-miterlimit:4;stroke-dasharray:none;stroke-opacity:1"
       d="m 81.680659,214.43064 c -0.26458,25.66459 -46.96355,19.05 -42.86251,0 3.30729,-11.64167 34.92501,-12.7 42.86251,0 z"
       id="path916"
       inkscape:connector-curvature="0"
       sodipodi:nodetypes="ccc" />
    <path
       style="fill:none;stroke:#000000;stroke-width:3;stroke-linecap:butt;stroke-linejoin:miter;stroke-miterlimit:4;stroke-dasharray:none;stroke-opacity:1"
       d="m 92.150599,214.43064 c 0.26458,25.66459 46.963551,19.04999 42.862511,0 -3.30729,-11.64167 -34.92501,-12.7 -42.862511,0 z"
       id="path916-3"
       inkscape:connector-curvature="0"
       sodipodi:nodetypes="ccc" />
  </g>
</svg>
