<?xml version="1.0" encoding="UTF-8" standalone="no"?>
<!-- Created with Inkscape (http://www.inkscape.org/) -->

<svg
   xmlns:dc="http://purl.org/dc/elements/1.1/"
   xmlns:cc="http://creativecommons.org/ns#"
   xmlns:rdf="http://www.w3.org/1999/02/22-rdf-syntax-ns#"
   xmlns:svg="http://www.w3.org/2000/svg"
   xmlns="http://www.w3.org/2000/svg"
   xmlns:sodipodi="http://sodipodi.sourceforge.net/DTD/sodipodi-0.dtd"
   xmlns:inkscape="http://www.inkscape.org/namespaces/inkscape"
   width="169mm"
   height="202mm"
   viewBox="0 0 169 202"
   version="1.1"
   id="svg5391"
   inkscape:version="0.92.4 (ca053d0, 2019-01-16)"
   sodipodi:docname="rutu-ataliya.svg">
  <defs
     id="defs5385" />
  <sodipodi:namedview
     id="base"
     pagecolor="#ffffff"
     bordercolor="#666666"
     borderopacity="1.0"
     inkscape:pageopacity="0.0"
     inkscape:pageshadow="2"
     inkscape:zoom="0.5"
     inkscape:cx="-118.13273"
     inkscape:cy="555.11719"
     inkscape:document-units="mm"
     inkscape:current-layer="layer1"
     showgrid="false"
     inkscape:window-width="1859"
     inkscape:window-height="1056"
     inkscape:window-x="61"
     inkscape:window-y="24"
     inkscape:window-maximized="1" />
  <metadata
     id="metadata5388">
    <rdf:RDF>
      <cc:Work
         rdf:about="">
        <dc:format>image/svg+xml</dc:format>
        <dc:type
           rdf:resource="http://purl.org/dc/dcmitype/StillImage" />
        <dc:title></dc:title>
      </cc:Work>
    </rdf:RDF>
  </metadata>
  <g
     inkscape:label="Layer 1"
     inkscape:groupmode="layer"
     id="layer1"
     transform="translate(0,-95)">
    <rect
       style="fill:#171615;fill-opacity:1;fill-rule:nonzero;stroke:none;stroke-width:6.96733522;stroke-linecap:round;stroke-linejoin:miter;stroke-miterlimit:4;stroke-dasharray:none;stroke-opacity:1"
       id="rect6012"
       width="106.3625"
       height="53.445835"
       x="33.337498"
       y="249.37498" />
    <path
       style="fill:#171615;fill-opacity:1;stroke:none;stroke-width:0.26458368px;stroke-linecap:butt;stroke-linejoin:miter;stroke-opacity:1"
       d="M 27.516737,123.45254 C 14.111147,136.32893 5.9972369,156.08448 3.1750075,191.18587 3.351397,238.98726 15.522262,253.27476 16.404208,302.31087 H 41.804275 C 69.850107,252.39281 40.745938,183.42476 40.21677,123.9817 Z"
       id="path6008"
       inkscape:connector-curvature="0"
       sodipodi:nodetypes="cccccc" />
    <path
       style="fill:#eac984;fill-opacity:1;stroke:none;stroke-width:0.26458368px;stroke-linecap:butt;stroke-linejoin:miter;stroke-opacity:1"
       d="m 77.560922,111.01712 c -57.25094,0.30238 -66.70037,55.28533 -66.007414,88.13146 1.6001,27.57967 32.921808,80.9121 66.271991,80.44593 38.843471,0.23939 68.161891,-48.46915 71.551081,-77.8631 0.40318,-29.44434 -8.45408,-90.6387 -71.815658,-90.71429 z"
       id="path5936"
       inkscape:connector-curvature="0"
       sodipodi:nodetypes="ccccc" />
    <path
       style="fill:#f75858;fill-opacity:1;stroke:none;stroke-width:0.26458368px;stroke-linecap:butt;stroke-linejoin:miter;stroke-opacity:1"
       d="m 50.226865,235.76817 c 9.039954,-0.30868 12.74413,-3.96875 18.035811,-4.18924 4.409733,2.20486 9.084049,2.29306 12.832315,-0.13229 5.600365,0.70555 8.995864,4.49791 17.991718,6.08541 -13.229205,15.7868 -32.102857,16.44827 -48.859844,-1.76388 z"
       id="path5957"
       inkscape:connector-curvature="0"
       sodipodi:nodetypes="ccccc" />
    <ellipse
       style="fill:#eac984;fill-opacity:1;fill-rule:nonzero;stroke:none;stroke-width:5.00000668;stroke-linecap:round;stroke-linejoin:miter;stroke-miterlimit:4;stroke-dasharray:none;stroke-opacity:1"
       id="path6006"
       cx="12.170865"
       cy="190.9213"
       rx="12.170865"
       ry="11.90625" />
    <path
       style="fill:#353535;fill-opacity:1;stroke:none;stroke-width:0.26458368px;stroke-linecap:butt;stroke-linejoin:miter;stroke-opacity:1"
       d="m 18.785464,114.98587 c -4.429654,6.78931 11.086784,17.62204 28.045907,23.8125 15.875041,6.35 36.512596,14.81667 79.375209,21.43125 8.99585,10.67153 11.37711,30.33889 9.52503,39.95209 -5.29169,15.34583 -14.55212,23.54791 -15.87505,46.0375 1.41112,11.37708 11.5535,19.31458 12.17087,30.1625 1.7078,10.58763 2.19626,17.83955 0.1764,30.51527 8.02571,0.35277 11.90627,-0.26458 18.78545,-0.88194 6.96738,-13.31736 7.14377,-15.78681 8.55489,-32.01458 0.79375,-18.34445 -8.99586,-24.25348 -6.35002,-37.57084 12.78822,-11.72986 17.37435,-29.28056 15.34587,-50.27083 -0.52917,-17.63889 -3.43959,-32.10278 -17.46254,-50.53542 -13.40559,-15.43403 -29.98619,-38.805557 -64.293914,-40.216668 0,0 -40.095624,16.636778 -48.683467,18.256248 -5.827869,1.09901 -19.314635,1.32292 -19.314635,1.32292 z"
       id="path5961"
       inkscape:connector-curvature="0"
       sodipodi:nodetypes="cccccccccccccsc" />
    <g
       id="g6000"
       transform="matrix(1.0000026,0,0,1,-23.812563,63.87198)">
      <ellipse
         ry="9.7895832"
         rx="10.583333"
         cy="120.17014"
         cx="73.554161"
         id="path5963"
         style="fill:#353535;fill-opacity:1;fill-rule:nonzero;stroke:none;stroke-width:5;stroke-linecap:round;stroke-linejoin:miter;stroke-miterlimit:4;stroke-dasharray:none;stroke-opacity:1" />
      <ellipse
         ry="3.7041667"
         rx="10.583333"
         cy="113.99653"
         cx="68.968056"
         id="path5963-9"
         style="fill:#353535;fill-opacity:1;fill-rule:nonzero;stroke:none;stroke-width:3.07562351;stroke-linecap:round;stroke-linejoin:miter;stroke-miterlimit:4;stroke-dasharray:none;stroke-opacity:1" />
    </g>
    <g
       id="g6004"
       transform="matrix(1.0000026,0,0,1,-18.168104,65.106702)">
      <ellipse
         transform="scale(-1,1)"
         ry="9.7895832"
         rx="10.583333"
         cy="119.77327"
         cx="-120.12083"
         id="path5963-2"
         style="fill:#353535;fill-opacity:1;fill-rule:nonzero;stroke:none;stroke-width:5;stroke-linecap:round;stroke-linejoin:miter;stroke-miterlimit:4;stroke-dasharray:none;stroke-opacity:1" />
      <ellipse
         transform="scale(-1,1)"
         ry="3.7041667"
         rx="10.583333"
         cy="113.59966"
         cx="-124.70694"
         id="path5963-9-2"
         style="fill:#353535;fill-opacity:1;fill-rule:nonzero;stroke:none;stroke-width:3.07562351;stroke-linecap:round;stroke-linejoin:miter;stroke-miterlimit:4;stroke-dasharray:none;stroke-opacity:1" />
    </g>
    <path
       style="fill:#f1f755;fill-opacity:1;stroke:none;stroke-width:0.14124173px;stroke-linecap:butt;stroke-linejoin:miter;stroke-opacity:1"
       d="m 6.2618052,196.63473 -5.37986398,13.99695 c 1e-6,5.7303 10.19342378,6.76363 10.75972578,0 z"
       id="path6010"
       inkscape:connector-curvature="0"
       sodipodi:nodetypes="cccc" />
  </g>
</svg>
