<?xml version="1.0" encoding="UTF-8" standalone="no"?>
<!-- Created with Inkscape (http://www.inkscape.org/) -->

<svg
   xmlns:dc="http://purl.org/dc/elements/1.1/"
   xmlns:cc="http://creativecommons.org/ns#"
   xmlns:rdf="http://www.w3.org/1999/02/22-rdf-syntax-ns#"
   xmlns:svg="http://www.w3.org/2000/svg"
   xmlns="http://www.w3.org/2000/svg"
   xmlns:sodipodi="http://sodipodi.sourceforge.net/DTD/sodipodi-0.dtd"
   xmlns:inkscape="http://www.inkscape.org/namespaces/inkscape"
   width="153mm"
   height="139mm"
   viewBox="0 0 153 139"
   version="1.1"
   id="svg870"
   inkscape:version="0.92.3 (d244b95, 2018-08-02)"
   sodipodi:docname="sean-brown.svg">
  <defs
     id="defs864">
    <clipPath
       clipPathUnits="userSpaceOnUse"
       id="clipPath5186">
      <g
         id="g5192">
        <path
           style="fill:#b17021;fill-opacity:1;fill-rule:nonzero;stroke:none;stroke-width:5;stroke-miterlimit:4;stroke-dasharray:none;stroke-opacity:1"
           d="m -26.33958,33.739582 a 66,66 0 0 1 -66,65.999998 66,66 0 0 1 -66,-65.999998 66,66 0 0 1 66,-66 66,66 0 0 1 66,66 z"
           id="path5188"
           inkscape:connector-curvature="0" />
        <path
           inkscape:connector-curvature="0"
           id="path5190"
           d="m -26.33958,40.739582 a 66,66 0 0 1 -66,65.999998 66,66 0 0 1 -66,-65.999998 66,66 0 0 1 66,-66 66,66 0 0 1 66,66 z"
           style="fill:#b17021;fill-opacity:1;fill-rule:nonzero;stroke:none;stroke-width:5;stroke-miterlimit:4;stroke-dasharray:none;stroke-opacity:1" />
      </g>
    </clipPath>
  </defs>
  <sodipodi:namedview
     id="base"
     pagecolor="#ffffff"
     bordercolor="#666666"
     borderopacity="1.0"
     inkscape:pageopacity="0.0"
     inkscape:pageshadow="2"
     inkscape:zoom="0.5"
     inkscape:cx="94.095325"
     inkscape:cy="444.54947"
     inkscape:document-units="mm"
     inkscape:current-layer="layer1"
     showgrid="false"
     inkscape:window-width="1859"
     inkscape:window-height="1056"
     inkscape:window-x="61"
     inkscape:window-y="24"
     inkscape:window-maximized="1" />
  <metadata
     id="metadata867">
    <rdf:RDF>
      <cc:Work
         rdf:about="">
        <dc:format>image/svg+xml</dc:format>
        <dc:type
           rdf:resource="http://purl.org/dc/dcmitype/StillImage" />
        <dc:title></dc:title>
      </cc:Work>
    </rdf:RDF>
  </metadata>
  <g
     inkscape:label="Layer 1"
     inkscape:groupmode="layer"
     id="layer1"
     transform="translate(0,-158)">
    <ellipse
       ry="12.7"
       rx="11.377083"
       cy="222.14792"
       cx="141.37708"
       id="ellipse1425"
       style="fill:#905f24;fill-opacity:1;fill-rule:nonzero;stroke:none;stroke-width:5;stroke-miterlimit:4;stroke-dasharray:none;stroke-opacity:1" />
    <ellipse
       style="fill:#905f24;fill-opacity:1;fill-rule:nonzero;stroke:none;stroke-width:5;stroke-miterlimit:4;stroke-dasharray:none;stroke-opacity:1"
       id="path1423"
       cx="11.377083"
       cy="222.14792"
       rx="11.377083"
       ry="12.7" />
    <g
       id="g1448"
       transform="translate(168.53957,190.26042)">
      <path
         inkscape:connector-curvature="0"
         id="path1442"
         d="m -26.33958,33.739582 a 66,66 0 0 1 -66,65.999998 66,66 0 0 1 -66,-65.999998 66,66 0 0 1 66,-66 66,66 0 0 1 66,66 z"
         style="fill:#b17021;fill-opacity:1;fill-rule:nonzero;stroke:none;stroke-width:5;stroke-miterlimit:4;stroke-dasharray:none;stroke-opacity:1" />
      <path
         style="fill:#b17021;fill-opacity:1;fill-rule:nonzero;stroke:none;stroke-width:5;stroke-miterlimit:4;stroke-dasharray:none;stroke-opacity:1"
         d="m -26.33958,40.739582 a 66,66 0 0 1 -66,65.999998 66,66 0 0 1 -66,-65.999998 66,66 0 0 1 66,-66 66,66 0 0 1 66,66 z"
         id="circle1417"
         inkscape:connector-curvature="0" />
    </g>
    <path
       style="fill:#f7f7f7;fill-opacity:1;fill-rule:nonzero;stroke:none;stroke-width:6.12372446;stroke-miterlimit:4;stroke-dasharray:none;stroke-opacity:1"
       id="path1427"
       sodipodi:type="arc"
       sodipodi:cx="76.406242"
       sodipodi:cy="254.69167"
       sodipodi:rx="33.866665"
       sodipodi:ry="26.193748"
       sodipodi:start="0"
       sodipodi:end="3.1415927"
       d="m 110.27291,254.69167 a 33.866665,26.193748 0 0 1 -16.933336,22.68445 33.866665,26.193748 0 0 1 -33.866665,0 33.866665,26.193748 0 0 1 -16.933332,-22.68446 l 33.866665,10e-6 z" />
    <circle
       style="fill:#452d15;fill-opacity:1;fill-rule:nonzero;stroke:none;stroke-width:5;stroke-miterlimit:4;stroke-dasharray:none;stroke-opacity:1"
       id="path1429"
       cx="50.403122"
       cy="214.34271"
       r="10" />
    <circle
       r="10"
       cy="214.34271"
       cx="102.53957"
       id="circle1431"
       style="fill:#452d15;fill-opacity:1;fill-rule:nonzero;stroke:none;stroke-width:5;stroke-miterlimit:4;stroke-dasharray:none;stroke-opacity:1" />
    <path
       style="fill:#573e21;fill-opacity:1;fill-rule:nonzero;stroke:none;stroke-width:5;stroke-miterlimit:4;stroke-dasharray:none;stroke-opacity:1"
       d="m 76.199991,157.99986 a 65.999999,65.999999 0 0 0 -45.96567,18.63969 H 122.06644 A 65.999999,65.999999 0 0 0 76.199991,157.99986 Z"
       id="path1415"
       inkscape:connector-curvature="0" />
    <path
       style="fill:#573e21;fill-opacity:1;stroke:none;stroke-width:0.26458332px;stroke-linecap:butt;stroke-linejoin:miter;stroke-opacity:1"
       d="m -138.30525,-13.620874 -18.32808,32.808374 -7.9375,-31.485417 z"
       id="path1450"
       inkscape:connector-curvature="0"
       clip-path="url(#clipPath5186)"
       transform="translate(168.53957,190.26042)" />
    <path
       clip-path="url(#clipPath5186)"
       inkscape:connector-curvature="0"
       id="path5194"
       d="m -138.30525,-13.620874 -18.32808,32.808374 -7.9375,-31.485417 z"
       style="fill:#573e21;fill-opacity:1;stroke:none;stroke-width:0.26458332px;stroke-linecap:butt;stroke-linejoin:miter;stroke-opacity:1"
       transform="matrix(-1,0,0,1,-16.105256,190.26042)" />
    <g
       id="g5206"
       transform="translate(207.81318,191.3757)">
      <ellipse
         transform="matrix(0.15094906,-0.98854154,0.77971551,0.62613395,0,0)"
         ry="3.9955819"
         rx="3.0310187"
         cy="-194.01929"
         cx="-187.66682"
         id="path5196"
         style="fill:#905f24;fill-opacity:1;fill-rule:nonzero;stroke:none;stroke-width:5.8587718;stroke-miterlimit:4;stroke-dasharray:none;stroke-opacity:1" />
      <ellipse
         style="fill:#905f24;fill-opacity:1;fill-rule:nonzero;stroke:none;stroke-width:4.67846346;stroke-miterlimit:4;stroke-dasharray:none;stroke-opacity:1"
         id="ellipse5198"
         cx="-188.82707"
         cy="18.048517"
         rx="2.4469786"
         ry="3.1559622"
         transform="matrix(0.96681817,-0.25546549,0.1978465,0.98023301,0,0)" />
    </g>
    <g
       transform="matrix(-1,0,0,1,-51.402776,191.3757)"
       id="g5212">
      <ellipse
         style="fill:#905f24;fill-opacity:1;fill-rule:nonzero;stroke:none;stroke-width:5.8587718;stroke-miterlimit:4;stroke-dasharray:none;stroke-opacity:1"
         id="ellipse5208"
         cx="-187.66682"
         cy="-194.01929"
         rx="3.0310187"
         ry="3.9955819"
         transform="matrix(0.15094906,-0.98854154,0.77971551,0.62613395,0,0)" />
      <ellipse
         transform="matrix(0.96681817,-0.25546549,0.1978465,0.98023301,0,0)"
         ry="3.1559622"
         rx="2.4469786"
         cy="18.048517"
         cx="-188.82707"
         id="ellipse5210"
         style="fill:#905f24;fill-opacity:1;fill-rule:nonzero;stroke:none;stroke-width:4.67846346;stroke-miterlimit:4;stroke-dasharray:none;stroke-opacity:1" />
    </g>
  </g>
</svg>
