<svg width="230" height="295" viewBox="485 380 230 295" xmlns="http://www.w3.org/2000/svg"><path d="M500 575 C500 575, 500 500, 500 500 C500 450, 550 400, 600 400 C650 400, 700 450, 700 500 C700 500, 700 575, 700 575 C700 625, 630 675, 600 675 C570 675, 500 625, 500 575" transform="rotate(0,0,0)" stroke="#000000" fill="#FFF187" opacity="1" stroke-width="0" stroke-linecap="round"></path><path d="M500 520 C500 517.5, 497.5 500, 495 500 C485 500, 483 530, 485 535 C490 535, 480 570, 495 570 C496 570, 500 557.5, 500 555 C500 555, 500 520, 500 520" transform="rotate(0,0,0)" stroke="#000000" fill="#FFF187" opacity="1" stroke-width="0" stroke-linecap="round"></path><path d="M700 520 C700 517.5, 702.5 500, 705 500 C715 500, 717 530, 715 535 C710 535, 720 570, 705 570 C704 570, 700 557.5, 700 555 C700 555, 700 520, 700 520" transform="rotate(0,0,0)" stroke="#000000" fill="#FFF187" opacity="1" stroke-width="0" stroke-linecap="round"></path><circle cx="493" cy="558" transform="rotate(0,0,0)" stroke="#000000" fill="#000000" opacity="1" stroke-width="0" r="3" stroke-linecap="round"></circle><circle cx="707" cy="558" transform="rotate(0,0,0)" stroke="#000000" fill="#000000" opacity="1" stroke-width="0" r="3" stroke-linecap="round"></circle><path d="M585 500 C580 485, 530 485, 525 500 C535 495, 575 495, 585 500" transform="rotate(0,0,0)" stroke="#000000" fill="#694726" opacity="1" stroke-width="0" stroke-linecap="round"></path><path d="M675 500 C670 485, 620 485, 615 500 C625 495, 665 495, 675 500" transform="rotate(0,0,0)" stroke="#000000" fill="#694726" opacity="1" stroke-width="0" stroke-linecap="round"></path><rect rx="5" ry="5" transform="rotate(0,0,0)" stroke="#000000" fill="#000000" opacity="1" stroke-width="0" x="545" y="510" width="15" height="15" stroke-linecap="round"></rect><rect rx="5" ry="5" transform="rotate(0,0,0)" stroke="#000000" fill="#000000" opacity="1" stroke-width="0" x="640" y="510" width="15" height="15" stroke-linecap="round"></rect><path d="M545 575 C545 580, 655 580, 655 575 C655 608, 627.7 635, 600 635 C572.3 635, 545 608, 545 575" transform="rotate(0,0,0)" stroke="#000000" fill="#FFFFFF" opacity="1" stroke-width="0" stroke-linecap="round"></path><path d="M500 520 C500 520, 500 500, 500 500 C500 445, 545 400, 600 400 C655 400, 700 445, 700 500 C700 500, 700 520, 700 520 C700 445, 650 410, 600 410 C550 410, 500 445, 500 520" transform="rotate(0,0,0)" stroke="#000000" fill="#80572E" opacity="1" stroke-width="0" stroke-linecap="round"></path><path d="M560 420 C538 420, 538 380, 560 380 C600 375, 675 405, 675 450 C675 435, 585 415, 560 420" transform="rotate(0,0,0)" stroke="#000000" fill="#694726" opacity="1" stroke-width="0" stroke-linecap="round"></path></svg>