<?xml version="1.0" encoding="UTF-8" standalone="no"?>
<!-- Created with Inkscape (http://www.inkscape.org/) -->

<svg
   xmlns:dc="http://purl.org/dc/elements/1.1/"
   xmlns:cc="http://creativecommons.org/ns#"
   xmlns:rdf="http://www.w3.org/1999/02/22-rdf-syntax-ns#"
   xmlns:svg="http://www.w3.org/2000/svg"
   xmlns="http://www.w3.org/2000/svg"
   xmlns:sodipodi="http://sodipodi.sourceforge.net/DTD/sodipodi-0.dtd"
   xmlns:inkscape="http://www.inkscape.org/namespaces/inkscape"
   width="204mm"
   height="198mm"
   viewBox="0 0 204 198"
   version="1.1"
   id="svg8"
   inkscape:version="0.92.3 (d244b95, 2018-08-02)"
   sodipodi:docname="kelly-ngo.svg">
  <defs
     id="defs2" />
  <sodipodi:namedview
     id="base"
     pagecolor="#ffffff"
     bordercolor="#666666"
     borderopacity="1.0"
     inkscape:pageopacity="0.0"
     inkscape:pageshadow="2"
     inkscape:zoom="0.5"
     inkscape:cx="241.96977"
     inkscape:cy="727.37574"
     inkscape:document-units="mm"
     inkscape:current-layer="layer1"
     showgrid="false"
     inkscape:window-width="1859"
     inkscape:window-height="1056"
     inkscape:window-x="61"
     inkscape:window-y="24"
     inkscape:window-maximized="1" />
  <metadata
     id="metadata5">
    <rdf:RDF>
      <cc:Work
         rdf:about="">
        <dc:format>image/svg+xml</dc:format>
        <dc:type
           rdf:resource="http://purl.org/dc/dcmitype/StillImage" />
        <dc:title></dc:title>
      </cc:Work>
    </rdf:RDF>
  </metadata>
  <g
     inkscape:label="Layer 1"
     inkscape:groupmode="layer"
     id="layer1"
     transform="translate(0,-99)">
    <path
       style="fill:#e357d2;fill-opacity:1;stroke:none;stroke-width:0.26458332px;stroke-linecap:butt;stroke-linejoin:miter;stroke-opacity:1"
       d="m 36.538354,167.88334 c -15.52222,-3.175 -37.39444046,15.16945 -36.51250046,40.21667 0.52917,22.40139 26.98750046,26.28194 30.16250046,40.74583 1.23472,8.29028 -14.11111,26.98749 -5.29167,33.33749 10.05417,11.46528 39.51111,7.23195 50.27083,14.81667 -4.40972,-13.22917 -28.92778,-10.93611 -28.04583,-26.9875 0,-13.40556 9.17222,-20.81389 10.58333,-42.8625 z"
       id="path4556"
       inkscape:connector-curvature="0"
       sodipodi:nodetypes="cccccccc" />
    <ellipse
       style="fill:#efe9bf;fill-opacity:1;fill-rule:nonzero;stroke:none;stroke-width:5;stroke-miterlimit:4;stroke-dasharray:none;stroke-opacity:1"
       id="path815"
       cx="111.68002"
       cy="187.99167"
       rx="84.288696"
       ry="86.178574" />
    <circle
       style="fill:#efe9bf;fill-opacity:1;fill-rule:nonzero;stroke:none;stroke-width:3.50982046;stroke-miterlimit:4;stroke-dasharray:none;stroke-opacity:1"
       id="path4558"
       cx="29.65917"
       cy="192.22484"
       r="8.9958334" />
    <path
       style="fill:#ec8ee1;fill-opacity:1;stroke:none;stroke-width:0.26458332px;stroke-linecap:butt;stroke-linejoin:miter;stroke-opacity:1"
       d="m 124.90918,127.31389 c 6.64398,-11.46528 7.99629,-18.69722 -0.70556,-26.45833 -40.687026,-4.350928 -59.854616,6.11481 -82.197206,27.86944 -18.81481,21.51944 -16.81574,53.975 -11.99444,85.37222 8.93703,-21.75463 18.57963,-36.80649 36.68888,-50.09445 12.11204,-2.93981 45.037956,-17.52129 58.208326,-36.68888 z"
       id="path4536"
       inkscape:connector-curvature="0"
       sodipodi:nodetypes="cccccc" />
    <path
       style="fill:#e97ada;fill-opacity:1;stroke:none;stroke-width:0.26458332px;stroke-linecap:butt;stroke-linejoin:miter;stroke-opacity:1"
       d="m 124.20362,100.85556 0.70556,26.45833 c 49.59468,13.99352 58.97269,44.12662 70.99654,64.9993 1.76388,-36.57129 -19.75557,-85.04884 -71.7021,-91.45763 z"
       id="path4538"
       inkscape:connector-curvature="0"
       sodipodi:nodetypes="cccc" />
    <g
       id="g4530"
       transform="translate(293.20552,234.48036)">
      <circle
         transform="rotate(15.156222)"
         r="8"
         cy="6.4858551"
         cx="-215.08615"
         id="path4520"
         style="fill:#000000;fill-opacity:1;fill-rule:nonzero;stroke:none;stroke-width:3.28755093;stroke-miterlimit:4;stroke-dasharray:none;stroke-opacity:1" />
      <path
         sodipodi:nodetypes="ccccc"
         inkscape:connector-curvature="0"
         id="rect4522"
         d="m -221.038,-61.481762 c 3.97605,3.087208 8.64387,3.620614 12.93927,3.504907 l -0.92235,3.40507 c -4.94451,0.488115 -9.72225,-0.988794 -12.93927,-3.504907 z"
         style="fill:#000000;fill-opacity:1;fill-rule:nonzero;stroke:none;stroke-width:5;stroke-miterlimit:4;stroke-dasharray:none;stroke-opacity:1" />
      <ellipse
         transform="rotate(15.156222)"
         ry="1.9402778"
         rx="2.0284722"
         cy="0.2114487"
         cx="-228.27751"
         id="path4525"
         style="fill:#000000;fill-opacity:1;fill-rule:nonzero;stroke:none;stroke-width:5;stroke-miterlimit:4;stroke-dasharray:none;stroke-opacity:1" />
    </g>
    <g
       transform="matrix(-1,0,0,1,-68.037896,236.5375)"
       id="g4546">
      <circle
         style="fill:#000000;fill-opacity:1;fill-rule:nonzero;stroke:none;stroke-width:3.28755093;stroke-miterlimit:4;stroke-dasharray:none;stroke-opacity:1"
         id="circle4540"
         cx="-215.08615"
         cy="6.4858551"
         r="8"
         transform="rotate(15.156222)" />
      <path
         style="fill:#000000;fill-opacity:1;fill-rule:nonzero;stroke:none;stroke-width:5;stroke-miterlimit:4;stroke-dasharray:none;stroke-opacity:1"
         d="m -221.038,-61.481762 c 3.97605,3.087208 8.64387,3.620614 12.93927,3.504907 l -0.92235,3.40507 c -4.94451,0.488115 -9.72225,-0.988794 -12.93927,-3.504907 z"
         id="path4542"
         inkscape:connector-curvature="0"
         sodipodi:nodetypes="ccccc" />
      <ellipse
         style="fill:#000000;fill-opacity:1;fill-rule:nonzero;stroke:none;stroke-width:5;stroke-miterlimit:4;stroke-dasharray:none;stroke-opacity:1"
         id="ellipse4544"
         cx="-228.27751"
         cy="0.2114487"
         rx="2.0284722"
         ry="1.9402778"
         transform="rotate(15.156222)" />
    </g>
    <circle
       r="8.9958334"
       cy="192.22501"
       cx="194.23"
       id="circle4560"
       style="fill:#efe9bf;fill-opacity:1;fill-rule:nonzero;stroke:none;stroke-width:3.50982046;stroke-miterlimit:4;stroke-dasharray:none;stroke-opacity:1" />
    <path
       style="fill:#da6060;fill-opacity:1;stroke:none;stroke-width:0.39485908px;stroke-linecap:butt;stroke-linejoin:miter;stroke-opacity:1"
       d="m 89.603184,240.73547 42.516766,0.30692 c -4.36503,4.80837 -12.37778,9.10166 -21.15961,8.86178 -7.58001,-0.0846 -16.691086,-2.72345 -21.357156,-9.1687 z"
       id="path4568"
       inkscape:connector-curvature="0"
       sodipodi:nodetypes="cccc" />
    <path
       style="fill:#dd2f2f;fill-opacity:1;stroke:none;stroke-width:0.39485908px;stroke-linecap:butt;stroke-linejoin:miter;stroke-opacity:1"
       d="m 85.398074,239.90645 c 7.97748,-0.92075 12.34252,-0.61384 19.416876,-5.2176 5.64444,2.65996 5.87022,3.17148 11.51468,-0.3069 6.62281,5.5245 13.01985,5.83142 19.86844,5.5245 -16.70756,6.44524 -33.64088,4.91067 -50.799996,0 z"
       id="path4566"
       inkscape:connector-curvature="0"
       sodipodi:nodetypes="ccccc" />
  </g>
</svg>
