<?xml version="1.0" encoding="UTF-8" standalone="no"?>
<!-- Created with Inkscape (http://www.inkscape.org/) -->

<svg
   xmlns:dc="http://purl.org/dc/elements/1.1/"
   xmlns:cc="http://creativecommons.org/ns#"
   xmlns:rdf="http://www.w3.org/1999/02/22-rdf-syntax-ns#"
   xmlns:svg="http://www.w3.org/2000/svg"
   xmlns="http://www.w3.org/2000/svg"
   xmlns:sodipodi="http://sodipodi.sourceforge.net/DTD/sodipodi-0.dtd"
   xmlns:inkscape="http://www.inkscape.org/namespaces/inkscape"
   width="140mm"
   height="140.00012mm"
   viewBox="0 0 140 140.00012"
   version="1.1"
   id="svg34"
   sodipodi:docname="earth1.svg"
   inkscape:version="0.92.3 (d244b95, 2018-08-02)">
  <defs
     id="defs28" />
  <sodipodi:namedview
     id="base"
     pagecolor="#ffffff"
     bordercolor="#666666"
     borderopacity="1.0"
     inkscape:pageopacity="0.0"
     inkscape:pageshadow="2"
     inkscape:zoom="1"
     inkscape:cx="176.33027"
     inkscape:cy="267.48104"
     inkscape:document-units="mm"
     inkscape:current-layer="layer1"
     showgrid="false"
     inkscape:window-width="1859"
     inkscape:window-height="1056"
     inkscape:window-x="61"
     inkscape:window-y="24"
     inkscape:window-maximized="1"
     showguides="true"
     fit-margin-top="0"
     fit-margin-left="0"
     fit-margin-right="0"
     fit-margin-bottom="0">
    <inkscape:grid
       type="xygrid"
       id="grid4843"
       originx="-30.025399"
       originy="-97.461879" />
  </sodipodi:namedview>
  <metadata
     id="metadata31">
    <rdf:RDF>
      <cc:Work
         rdf:about="">
        <dc:format>image/svg+xml</dc:format>
        <dc:type
           rdf:resource="http://purl.org/dc/dcmitype/StillImage" />
        <dc:title></dc:title>
      </cc:Work>
    </rdf:RDF>
  </metadata>
  <g
     inkscape:label="Layer 1"
     inkscape:groupmode="layer"
     id="layer1"
     style="display:inline;opacity:1"
     transform="translate(-30.025398,-59.537994)">
    <circle
       id="path36"
       cx="100.0254"
       cy="129.53812"
       style="fill:#6aeded;fill-opacity:1;stroke-width:0.26458332"
       r="70" />
    <rect
       style="fill:#31b240;fill-opacity:1;fill-rule:nonzero;stroke:none;stroke-width:0.26458332;stroke-opacity:1"
       id="rect4810"
       width="1.9402683"
       height="0"
       x="148.16667"
       y="97.592361" />
    <path
       style="fill:#14a5a5;fill-opacity:1;fill-rule:nonzero;stroke:none;stroke-width:0.26458332;stroke-opacity:1"
       id="path4822"
       sodipodi:type="arc"
       sodipodi:cx="100.025"
       sodipodi:cy="129.53799"
       sodipodi:rx="70"
       sodipodi:ry="70"
       sodipodi:start="4.712389"
       sodipodi:end="1.5707963"
       d="m 100.025,59.537994 a 70,70 0 0 1 70,69.999996 70,70 0 0 1 -70,70 l 0,-70 z" />
    <path
       style="fill:#59d167;fill-opacity:1;stroke:none;stroke-width:0.99999994px;stroke-linecap:butt;stroke-linejoin:miter;stroke-opacity:1"
       d="M 376.18555 53.160156 L 370.18555 55.160156 L 366.18555 60.494141 L 364.51758 67.828125 C 364.51758 67.828125 365.5189 72.826826 365.18555 74.160156 C 364.85219 75.493494 361.51758 79.160156 361.51758 79.160156 L 357.85156 84.828125 L 358.85156 89.160156 C 358.85156 89.160156 360.18487 94.82747 361.85156 95.494141 C 363.51822 96.1608 365.1849 97.494796 366.85156 96.828125 C 368.51826 96.161454 371.85156 94.160156 371.85156 94.160156 C 371.85156 94.160156 375.18552 96.828128 376.18555 98.828125 C 377.18553 100.82813 377.18556 103.4948 378.18555 104.82812 C 379.18557 106.16146 382.85156 106.82812 382.85156 106.82812 L 383.85156 102.16016 L 383.18555 97.494141 L 384.51758 93.160156 L 383.85156 88.828125 L 380.85156 87.828125 L 377.85156 86.160156 L 376.85156 80.494141 L 378.51758 75.494141 L 378.85156 70.494141 L 381.18555 68.160156 L 384.51758 70.160156 L 386.51758 75.494141 L 386.18555 79.494141 L 387.51758 83.828125 L 392.18555 88.494141 L 398.51758 88.494141 L 401.18555 88.160156 L 407.51758 94.160156 L 399.85156 95.494141 L 402.85156 100.82812 L 399.85156 101.16016 L 397.85156 101.82812 L 399.51758 105.49414 L 400.18555 111.16016 L 396.18555 113.82812 L 392.18555 113.16016 L 386.51758 115.82812 L 381.18555 114.82812 L 374.18555 115.16016 L 369.85156 119.49414 L 367.18555 125.82812 L 365.18555 130.49414 L 360.85156 131.49414 L 357.85156 133.82812 L 354.18555 135.82812 L 356.51758 138.82812 L 360.51758 141.82812 L 360.85156 145.16016 L 362.51758 151.49414 L 361.51758 156.16016 L 356.51758 157.49414 L 349.18555 155.82812 L 345.18555 155.82812 L 344.18555 157.82812 L 344.85156 162.49414 L 343.85156 168.49414 L 347.51758 175.82812 L 353.51758 179.16016 L 361.18555 179.49414 L 366.18555 176.49414 L 367.51758 170.49414 L 367.51758 165.16016 L 370.51758 162.49414 L 373.51758 155.82812 L 374.85156 153.16016 L 378.18555 154.16016 L 383.18555 153.16016 L 384.51758 150.49414 L 387.85156 150.82812 L 393.18555 154.82812 L 396.51758 160.16016 L 399.18555 164.49414 L 400.18555 170.16016 L 404.18555 172.82812 L 407.85156 172.16016 L 411.18555 168.82812 L 410.18555 164.82812 L 405.85156 161.49414 L 401.85156 157.16016 L 400.51758 152.49414 L 401.18555 150.16016 L 406.18555 152.49414 L 413.51758 156.82812 L 418.18555 159.16016 L 422.51758 164.82812 L 422.85156 169.82812 L 429.18555 173.16016 L 431.85156 172.82812 L 433.18555 167.82812 L 439.18555 165.82812 L 441.85156 164.49414 L 439.51758 154.82812 L 440.51758 148.16016 L 442.18555 144.16016 L 446.51758 143.82812 L 452.85156 149.16016 L 453.85156 143.82812 C 453.85156 143.82812 457.18557 141.49414 459.18555 141.49414 C 461.18556 141.49414 463.51888 144.82683 464.18555 146.16016 C 464.85222 147.49349 462.51825 151.16146 465.85156 152.82812 C 469.18492 154.49478 474.18555 156.49414 474.18555 156.49414 L 481.85156 162.82812 L 479.51758 169.16016 L 473.51758 168.16016 L 467.18555 165.49414 L 460.85156 163.82812 L 455.51758 165.16016 L 450.18555 167.82812 L 445.85156 170.16016 L 445.18555 174.82812 L 450.85156 179.16016 L 459.85156 182.49414 L 468.18555 183.16016 L 474.51758 182.49414 L 478.85156 188.16016 L 481.18555 197.49414 L 480.85156 202.82812 L 479.18555 205.82812 L 471.18555 206.16016 L 464.51758 206.49414 L 455.51758 205.49414 L 445.85156 201.49414 L 439.18555 197.82812 L 435.51758 198.16016 L 436.85156 202.49414 L 436.51758 207.16016 L 433.18555 208.82812 L 423.85156 204.16016 L 419.85156 199.82812 L 414.18555 198.49414 L 405.85156 194.16016 L 399.85156 187.16016 L 396.85156 180.82812 L 393.85156 182.49414 L 387.85156 182.82812 L 380.85156 181.49414 L 372.51758 185.82812 L 370.18555 189.16016 L 362.85156 186.16016 L 356.85156 187.49414 L 349.85156 198.16016 L 348.85156 205.82812 L 342.18555 217.16016 L 338.18555 222.49414 L 332.85156 233.49414 L 331.18555 240.16016 L 335.18555 247.49414 C 335.18555 247.49414 336.85093 255.49478 336.51758 256.82812 C 336.18422 258.16143 332.51758 266.49414 332.51758 266.49414 L 335.51758 272.16016 C 335.51758 272.16016 347.18422 291.82744 347.51758 293.49414 C 347.85089 295.1608 361.18555 304.49414 361.18555 304.49414 L 374.18555 304.82812 L 386.85156 302.82812 L 402.51758 299.49414 L 408.85156 307.16016 L 415.85156 311.49414 C 415.85156 311.49414 419.51758 318.49478 419.51758 319.82812 C 419.51758 321.16143 417.85156 330.16016 417.85156 330.16016 L 417.85156 335.49414 L 425.18555 346.82812 L 427.85156 362.49414 L 426.18555 380.82812 L 418.51758 393.49414 L 416.51758 403.49414 C 416.51758 403.49414 417.85156 429.49478 417.85156 430.82812 C 417.85156 432.16143 413.85156 451.16016 413.85156 451.16016 L 415.18555 481.49414 L 421.51758 477.49414 L 437.51758 463.49414 L 452.18555 450.16016 L 465.18555 436.49414 L 479.85156 416.82812 L 491.18555 400.82812 L 500.51758 383.49414 L 514.51758 350.16016 L 523.18555 317.82812 L 526.51758 296.82812 L 522.18555 290.49414 L 518.18555 280.49414 L 511.85156 272.16016 L 504.51758 262.82812 L 499.18555 252.49414 L 496.18555 245.49414 L 488.51758 233.16016 L 479.85156 220.49414 L 475.18555 211.82812 L 484.85156 213.49414 C 484.85156 213.49414 486.51759 219.82681 487.51758 221.16016 C 488.51757 222.4935 491.85156 227.16016 491.85156 227.16016 L 499.51758 232.16016 C 499.51758 232.16016 504.18422 240.1608 504.51758 241.49414 C 504.85093 242.82748 505.51889 248.49482 507.18555 249.82812 C 508.85221 251.16147 512.85156 255.49414 512.85156 255.49414 C 512.85156 255.49414 518.18426 261.49478 518.51758 262.82812 C 518.85093 264.16143 522.51758 271.16016 522.51758 271.16016 L 527.85156 285.49414 L 528.51758 266.16016 L 528.18555 244.16016 L 525.18555 221.82812 L 519.51758 194.49414 L 509.85156 165.82812 L 509.85156 162.82812 L 508.54297 162.82812 L 501.85156 147.49414 L 490.85156 128.16016 L 481.18555 112.82812 L 467.18555 95.160156 L 452.85156 78.828125 L 440.18555 67.160156 L 431.51758 60.828125 L 427.51758 66.160156 L 422.51758 66.828125 L 417.85156 70.494141 L 416.51758 78.494141 L 412.85156 82.494141 L 408.18555 76.494141 L 403.51758 73.160156 L 399.18555 68.494141 L 396.51758 63.828125 L 391.85156 58.160156 L 384.18555 54.160156 L 376.18555 53.160156 z "
       transform="matrix(0.26458333,0,0,0.26458333,30.025398,59.537994)"
       id="path4727" />
    <path
       style="display:inline;opacity:1;fill:#31b240;fill-opacity:1;stroke:none;stroke-width:0.84654194px;stroke-linecap:butt;stroke-linejoin:miter;stroke-opacity:1"
       d="M 239.74023 27.298828 L 233.18164 28.724609 C 233.18164 28.724609 226.77308 32.975102 225.9043 33.701172 C 225.03551 34.427238 222.10531 37.982573 221.59961 39.142578 C 221.0939 40.302579 219.32422 44.361328 219.32422 44.361328 L 215.01562 47.59375 C 215.01563 47.59375 209.47438 51.118131 207.70117 52.96875 C 205.92807 54.81932 206.54688 56.882812 206.54688 56.882812 L 205.43359 62.607422 L 202.6875 68.587891 L 206.12891 68.292969 L 209.5332 66.185547 L 215.11523 66.681641 L 221.89844 69.492188 L 228.17383 73.464844 L 230.60742 77.697266 L 230.54102 80.705078 L 235.08203 88.337891 L 238.60352 91.664062 L 242.23047 93.792969 L 247.19727 94.435547 L 250.05859 93.886719 L 250.74219 90.734375 C 250.74219 90.734375 249.10564 86.572911 248.66797 84.726562 C 248.23031 82.880214 247.71484 77.412109 247.71484 77.412109 C 247.71484 77.412109 248.86938 73.497714 249.55664 72.554688 C 250.24389 71.611654 251.32617 68.494141 251.32617 68.494141 L 250.92188 64.041016 L 253.01758 60.8125 L 255.76758 57.041016 L 257.06641 53.742188 L 254.13086 52.878906 L 250.10156 48.503906 L 249.58789 45.246094 L 250.92383 41.548828 L 249.46875 37.603516 L 245.43945 33.228516 L 241.95312 29.503906 L 239.74023 27.298828 z M 80.517578 75.828125 L 67.185547 89.160156 L 56.851562 101.82812 L 45.517578 116.82812 L 33.185547 138.82812 L 22.517578 157.82812 L 16.185547 174.82812 L 10.185547 191.82812 L 12.851562 197.49414 L 17.851562 208.49414 L 21.851562 220.16016 L 25.851562 231.16016 L 28.517578 238.82812 L 26.517578 244.16016 L 26.851562 251.16016 L 32.517578 255.16016 L 44.851562 261.16016 L 54.517578 263.49414 L 58.851562 262.82812 L 62.517578 261.16016 L 67.185547 262.16016 L 70.185547 266.49414 L 74.851562 270.49414 L 80.517578 273.16016 L 85.185547 273.16016 L 89.185547 273.16016 L 90.517578 276.49414 L 92.851562 282.82812 L 97.185547 287.49414 L 102.85156 292.16016 L 109.18555 295.16016 L 124.83398 295.4043 L 115.18555 293.16016 L 107.51758 289.49414 L 103.51758 284.49414 L 100.51758 277.16016 L 102.18555 270.82812 L 102.85156 265.82812 L 98.517578 263.49414 C 98.517578 263.49414 94.1849 264.16016 92.851562 264.16016 L 86.851562 264.16016 L 83.517578 259.16016 L 86.185547 254.82812 L 91.851562 247.49414 L 91.851562 242.16016 L 87.517578 241.16016 L 82.851562 244.16016 L 79.517578 248.16016 L 74.851562 251.16016 C 74.851562 251.16016 70.518877 252.49414 69.185547 252.49414 C 67.852205 252.49414 62.851562 251.82813 62.851562 251.82812 L 58.851562 245.16016 L 57.185547 236.16016 L 59.517578 227.49414 L 63.185547 219.16016 L 67.851562 212.16016 L 74.517578 208.82812 L 81.851562 205.16016 C 81.851562 205.16016 85.850909 205.82684 87.517578 206.16016 C 89.184248 206.49351 94.185547 207.16016 94.185547 207.16016 L 99.185547 204.82812 L 104.18555 201.49414 L 109.51758 201.16016 C 109.51758 201.16016 111.85091 204.8268 113.51758 205.16016 C 115.18425 205.49351 119.18555 204.82812 119.18555 204.82812 L 121.85156 211.16016 L 122.18555 218.49414 C 122.18555 218.49414 123.85221 221.16016 125.18555 221.16016 C 126.51888 221.16016 129.18555 218.16016 129.18555 218.16016 L 130.85156 211.82812 L 130.85156 204.16016 L 132.18555 197.49414 L 135.18555 193.82812 L 138.85156 190.82812 L 145.18555 186.49414 L 148.51758 182.82812 L 150.51758 177.49414 L 152.51758 171.82812 L 157.51758 167.49414 L 164.18555 162.49414 L 171.85156 157.82812 L 176.51758 152.82812 L 181.18555 149.16016 L 186.51758 146.82812 L 190.51758 142.49414 L 190.18555 137.82812 L 185.85156 135.82812 L 181.85156 135.82812 L 180.85156 133.16016 L 184.85156 129.16016 C 184.85156 129.16016 189.18425 126.4935 190.51758 126.16016 C 191.85091 125.82684 198.85156 124.49414 198.85156 124.49414 L 205.18555 123.49414 L 207.85156 119.82812 L 206.51758 117.82812 C 206.51758 117.82812 205.85091 117.49351 204.51758 116.16016 C 203.18425 114.82683 201.51758 109.82812 201.51758 109.82812 L 199.51758 101.82812 C 199.51758 101.82812 198.51758 98.827467 197.51758 97.494141 C 196.51758 96.160799 192.85156 92.828125 192.85156 92.828125 L 188.51758 92.494141 L 185.18555 96.828125 L 184.85156 102.16016 L 183.51758 106.82812 L 177.85156 110.49414 L 175.51758 116.16016 L 172.51758 121.16016 L 168.18555 122.49414 C 168.18555 122.49414 165.18555 118.4935 165.18555 117.16016 C 165.18555 115.82683 164.85156 108.49414 164.85156 108.49414 L 160.85156 105.16016 C 160.85156 105.16016 151.85156 102.4935 150.85156 100.16016 C 149.85156 97.826827 151.18555 93.494141 151.18555 93.494141 L 155.85156 90.160156 L 164.51758 88.160156 L 169.85156 84.828125 L 171.51758 80.494141 L 167.85156 79.160156 L 161.85156 78.160156 L 153.18555 80.828125 C 153.18555 80.828125 148.85221 82.826825 147.18555 83.160156 C 145.51887 83.493511 141.85221 82.160156 140.18555 82.160156 L 130.18555 82.160156 C 130.18555 82.160156 126.51823 83.494141 124.85156 83.494141 C 123.1849 83.494141 120.85091 83.160156 119.51758 83.160156 C 118.18425 83.160156 109.85156 79.828125 109.85156 79.828125 C 109.85156 79.828125 105.85091 78.160156 103.51758 78.160156 L 93.517578 78.160156 L 87.851562 78.494141 L 80.517578 75.828125 z M 124.83398 295.4043 L 125.39453 300.5293 L 125.67383 307.36133 L 123.99609 313.33984 L 119.52148 319.0332 L 116.72461 325.01172 L 115.88477 330.42188 L 118.68164 333.26953 L 118.40234 334.69141 L 115.88477 337.25391 L 115.04492 339.81641 L 116.44336 340.95508 L 127.07227 353.19727 C 127.07227 353.19727 132.10585 364.30014 133.22461 366.29297 C 134.34337 368.28584 141.33594 375.40234 141.33594 375.40234 L 150.8457 379.38867 L 158.11719 385.65234 C 158.11719 385.65234 160.91523 394.19326 161.47461 395.33203 C 162.03399 396.4708 163.71094 408.14258 163.71094 408.14258 L 165.94922 422.09375 L 168.74609 431.20312 L 172.94141 445.15234 L 174.33984 455.9707 L 175.45898 462.80469 C 175.45898 462.80469 179.09414 469.63666 180.21289 470.77539 C 181.33166 471.91416 185.80664 476.46875 185.80664 476.46875 L 188.04492 484.44141 L 189.16406 488.14258 L 189.17383 488.14453 C 189.28088 488.29129 189.35579 488.42324 189.30664 488.50781 L 191.5 494.13477 L 197 495.38477 L 200.07227 490.70508 L 202.30859 482.44727 L 202.58789 475.04688 L 199.79102 471.3457 L 202.0293 467.35938 L 204.26758 461.94922 C 204.26758 461.94922 207.62344 461.09673 208.74219 460.52734 C 209.86096 459.958 211.53906 455.40234 211.53906 455.40234 L 210.14062 450.84766 L 207.34375 446.57617 L 205.38477 443.73047 L 207.06445 442.30664 C 207.06445 442.30664 209.30077 442.59162 210.69922 443.73047 C 212.09767 444.86928 214.33594 445.15234 214.33594 445.15234 L 216.57227 443.73047 L 216.85352 438.89062 L 218.53125 435.47461 L 219.65039 429.7793 L 222.72656 424.08594 L 223.56445 419.81641 L 222.44727 414.40625 L 222.16602 411.27539 L 225.24414 407.28906 L 230.83789 402.44922 L 235.3125 400.74023 L 238.66797 399.60156 L 241.46484 393.05469 L 241.74414 385.9375 L 241.74414 378.25 C 241.74414 378.25 243.70312 373.69541 243.70312 372.55664 C 243.70312 371.41787 241.74414 365.72266 241.74414 365.72266 L 239.78711 363.44531 L 245.10156 360.59961 L 247.05859 357.4668 L 248.73828 351.77344 L 251.81445 348.92578 L 253.21289 345.22656 L 251.81445 340.66992 L 248.17773 337.53906 L 243.42383 336.40039 L 239.78711 333.26953 L 236.99023 330.99023 L 230.55664 329.56836 L 226.92188 331.27539 L 225.52344 331.8457 L 223.8457 328.99805 L 220.48828 324.44336 L 217.9707 323.58984 L 214.05664 325.86719 L 211.25977 327.00586 L 209.30078 324.72852 L 206.22461 323.58984 C 206.22461 323.58984 203.42735 326.15142 202.30859 325.58203 C 201.18983 325.01261 200.35156 322.44922 200.35156 322.44922 L 203.42773 318.46484 L 205.38477 314.19336 L 203.42773 308.21484 L 200.07227 303.94531 L 195.5957 301.09766 L 190.00195 299.95898 L 185.52734 299.67383 L 180.77344 295.4043 L 177.41602 292.55664 L 173.78125 289.42578 L 169.86523 286.86328 L 165.10938 286.29492 L 160.63477 286.57812 L 156.71875 285.43945 L 154.48242 283.73242 L 151.68555 281.45508 L 147.76953 282.30859 L 145.25195 286.57812 C 145.25195 286.57812 147.21055 289.99459 146.0918 290.2793 C 144.97303 290.5639 142.17578 289.99609 142.17578 289.99609 L 140.49805 286.29492 L 141.05664 282.59375 L 136.02148 282.59375 L 133.22461 286.00977 L 131.54688 289.99609 L 129.0293 293.41211 L 126.79297 293.41211 L 124.83398 295.4043 z "
       transform="matrix(0.26458333,0,0,0.26458333,30.025398,59.537994)"
       id="path4729-3" />
  </g>
</svg>
