<?xml version="1.0" encoding="UTF-8" standalone="no"?>
<!-- Created with Inkscape (http://www.inkscape.org/) -->

<svg
   xmlns:dc="http://purl.org/dc/elements/1.1/"
   xmlns:cc="http://creativecommons.org/ns#"
   xmlns:rdf="http://www.w3.org/1999/02/22-rdf-syntax-ns#"
   xmlns:svg="http://www.w3.org/2000/svg"
   xmlns="http://www.w3.org/2000/svg"
   xmlns:sodipodi="http://sodipodi.sourceforge.net/DTD/sodipodi-0.dtd"
   xmlns:inkscape="http://www.inkscape.org/namespaces/inkscape"
   width="170mm"
   height="188mm"
   viewBox="0 0 170 188"
   version="1.1"
   id="svg8"
   inkscape:version="0.92.3 (d244b95, 2018-08-02)"
   sodipodi:docname="waving.svg">
  <defs
     id="defs2" />
  <sodipodi:namedview
     id="base"
     pagecolor="#ffffff"
     bordercolor="#666666"
     borderopacity="1.0"
     inkscape:pageopacity="0.0"
     inkscape:pageshadow="2"
     inkscape:zoom="0.5"
     inkscape:cx="-238.86472"
     inkscape:cy="583.7829"
     inkscape:document-units="mm"
     inkscape:current-layer="layer1"
     showgrid="false"
     inkscape:window-width="1859"
     inkscape:window-height="1056"
     inkscape:window-x="61"
     inkscape:window-y="24"
     inkscape:window-maximized="1" />
  <metadata
     id="metadata5">
    <rdf:RDF>
      <cc:Work
         rdf:about="">
        <dc:format>image/svg+xml</dc:format>
        <dc:type
           rdf:resource="http://purl.org/dc/dcmitype/StillImage" />
        <dc:title></dc:title>
      </cc:Work>
    </rdf:RDF>
  </metadata>
  <g
     inkscape:label="Layer 1"
     inkscape:groupmode="layer"
     id="layer1"
     transform="translate(0,-109)">
    <path
       style="fill:#7a3218;fill-opacity:1;fill-rule:nonzero;stroke:none;stroke-width:3.65120602;stroke-miterlimit:4;stroke-dasharray:none;stroke-opacity:1"
       d="m 35.1881,169.58259 c 25.652767,35.18747 60.315985,30.21335 72.49763,30.35878 l -0.46304,21.65887 c -28.29379,-0.0441 -64.172973,-6.5424 -86.732534,-42.29568 z"
       id="rect832"
       inkscape:connector-curvature="0"
       sodipodi:nodetypes="ccccc" />
    <path
       style="fill:#31b240;fill-opacity:1;fill-rule:nonzero;stroke:none;stroke-width:2.26622415;stroke-miterlimit:4;stroke-dasharray:none;stroke-opacity:1"
       d="m 106.41886,224.08495 9.90589,-0.96563 0.70751,-0.069 -0.003,-0.0335 a 12.84339,11.374268 85.246751 0 0 8.49644,-7.24649 12.84339,11.374268 85.246751 0 0 -1.20686,-12.78639 12.84339,11.374268 85.246751 0 0 -9.69637,-5.46638 l -0.004,-0.0401 -0.70751,0.069 -9.90588,0.96564 z"
       id="path817"
       inkscape:connector-curvature="0" />
    <rect
       style="fill:#59d167;fill-opacity:1;fill-rule:nonzero;stroke:none;stroke-width:3;stroke-miterlimit:4;stroke-dasharray:none;stroke-opacity:1"
       id="rect815"
       width="77.787498"
       height="130.175"
       x="-13.61293"
       y="222.74883"
       ry="20"
       transform="rotate(-32.615236)" />
    <path
       style="fill:#7a3218;fill-opacity:1;fill-rule:nonzero;stroke:none;stroke-width:3;stroke-miterlimit:4;stroke-dasharray:none;stroke-opacity:1"
       d="m 120.91296,168.55965 8.37271,13.08437 -3.98625,2.55081 a 10.318749,18.653124 57.384764 0 0 12.67252,2.50025 10.318749,18.653124 57.384764 0 0 15.7117,-10.05394 10.318749,18.653124 57.384764 0 0 3.03917,-12.55419 l -4.25961,2.72573 -8.37271,-13.08437 z"
       id="path828"
       inkscape:connector-curvature="0" />
    <path
       style="fill:#8a3d20;fill-opacity:1;fill-rule:nonzero;stroke:none;stroke-width:3;stroke-miterlimit:4;stroke-dasharray:none;stroke-opacity:1"
       d="m 101.3301,114.39433 a 34.999998,34.999998 0 0 0 -13.967168,41.53519 5.1593747,5.6885413 57.384764 0 0 -0.09682,0.0558 5.1593747,5.6885413 57.384764 0 0 -2.010634,7.41188 5.1593747,5.6885413 57.384764 0 0 7.035554,1.58456 34.999998,34.999998 0 0 0 46.768608,8.37408 34.999998,34.999998 0 0 0 11.97546,-45.96694 5.1593747,5.6885413 57.384764 0 0 1.52438,-7.05963 5.1593747,5.6885413 57.384764 0 0 -7.57238,-1.27969 5.1593747,5.6885413 57.384764 0 0 -0.10792,0.0739 34.999998,34.999998 0 0 0 -43.54911,-4.72921 z"
       id="path830"
       inkscape:connector-curvature="0" />
    <path
       style="fill:#8a3d20;fill-opacity:1;fill-rule:nonzero;stroke:none;stroke-width:3;stroke-miterlimit:4;stroke-dasharray:none;stroke-opacity:1"
       d="m 10.734196,143.2343 a 4.3405456,3 57.384764 0 0 -0.187373,5.27276 l 9.35844,14.62481 -0.842256,0.53896 -8.623946,-13.47699 a 3.9999703,3 57.384764 0 0 -4.6826208,-1.75215 3.9999703,3 57.384764 0 0 -0.370925,4.98592 l 8.6239458,13.47699 -0.842259,0.53897 -7.4947738,-11.71239 a 3.4762463,3 57.384764 0 0 -4.400465,-1.31121 3.4762463,3 57.384764 0 0 -0.65308,4.54498 l 7.494774,11.71239 2.5669618,4.01149 a 16,14 57.384764 0 0 13.36483,7.89847 16,14 57.384764 0 0 11.792478,-7.54603 16,14 57.384764 0 0 0.944131,-9.07855 l 5.718959,-11.37016 a 3,3.2062258 26.700488 0 0 -1.239365,-4.21193 3,3.2062258 26.700488 0 0 -4.120794,1.51602 l -3.434176,6.82769 -2.008504,-3.13877 -8.623947,-13.47699 a 3.99997,3 57.384764 0 0 -4.68262,-1.75215 3.99997,3 57.384764 0 0 -0.370926,4.98592 l 8.623947,13.47699 -1.685821,1.07876 -9.35844,-14.62482 a 4.3405456,3 57.384764 0 0 -4.866175,-2.03898 z"
       id="path836"
       inkscape:connector-curvature="0" />
    <path
       style="fill:#f1f1f1;fill-opacity:1;fill-rule:nonzero;stroke:none;stroke-width:3;stroke-miterlimit:4;stroke-dasharray:none;stroke-opacity:1"
       id="path857"
       sodipodi:type="arc"
       sodipodi:cx="23.825613"
       sodipodi:cy="200.9207"
       sodipodi:rx="20"
       sodipodi:ry="14"
       sodipodi:start="0"
       sodipodi:end="3.1415927"
       d="m 43.825613,200.9207 a 20,14 0 0 1 -10,12.12436 20,14 0 0 1 -20.000001,0 20,14 0 0 1 -9.999999,-12.12436 l 20,0 z"
       transform="rotate(-32.615236)" />
    <ellipse
       style="fill:#333333;fill-opacity:1;fill-rule:nonzero;stroke:none;stroke-width:3;stroke-miterlimit:4;stroke-dasharray:none;stroke-opacity:1"
       id="path859"
       cx="11.787069"
       cy="178.78944"
       rx="6.0854168"
       ry="5.953125"
       transform="rotate(-32.615236)" />
    <ellipse
       ry="5.953125"
       rx="6.0854168"
       cy="178.78944"
       cx="36.128723"
       id="ellipse861"
       style="fill:#333333;fill-opacity:1;fill-rule:nonzero;stroke:none;stroke-width:3;stroke-miterlimit:4;stroke-dasharray:none;stroke-opacity:1"
       transform="rotate(-32.615236)" />
  </g>
</svg>
